<svg width="84" height="84" viewBox="0 0 84 84" fill="none" xmlns="http://www.w3.org/2000/svg">
<path d="M60.375 10.5C55.0121 10.5 51.6994 13.6684 49.875 16.1595V13.125C8.358 13.125 7.875 72.8963 7.875 73.5H18.375C18.375 73.5 18.333 60.7031 22.3939 48.069C24.4256 41.7533 27.5126 35.5084 31.9095 31.0065C36.309 26.5072 41.9291 23.625 49.875 23.625H51.5156L52.2533 22.1471C52.2533 22.1471 54.5816 18.2543 57.75 16.5716V24.2812L68.4967 45.7747L68.7409 46.1842L69.069 46.5124C70.1269 47.5072 70.5259 48.4496 70.7096 49.0534C70.854 49.4944 70.7936 49.4865 70.7936 49.5469C70.7201 49.8041 70.6099 50.358 70.1374 51.1061C69.5625 52.017 69.0506 52.5 68.25 52.5C67.4494 52.5 66.9375 52.017 66.3626 51.1061C65.7904 50.1926 65.5436 49.2188 65.5436 49.2188L64.9688 47.0033L62.6719 47.25C62.6719 47.25 60.4879 47.5072 58.0781 46.8405C55.6684 46.1737 53.3925 44.9951 52.4186 41.3438L51.5156 37.9811L48.5625 39.7031C45.1684 41.6929 43.1996 44.7274 42.819 47.8249C42.441 50.9224 43.3545 53.9044 44.4596 56.847C46.6646 62.7323 49.875 68.733 49.875 73.5H55.125C55.125 66.6199 51.2794 60.2306 49.3001 54.9596C48.3158 52.3268 47.8643 50.1007 48.0716 48.4811C48.196 47.499 48.6258 46.5808 49.3001 45.8561C51.3004 48.9825 54.0382 51.198 56.6842 51.9251C59.1255 52.6024 60.1177 52.3871 61.278 52.3372C61.5142 52.9515 61.4408 53.1038 61.9342 53.8939C63 55.608 65.1105 57.75 68.25 57.75C71.3869 57.75 73.5 55.608 74.5658 53.8939C75.6341 52.1824 76.0436 50.5312 76.0436 50.5312L76.125 50.2845V50.0404C76.125 50.0404 76.146 48.7777 75.7155 47.4154C75.3559 46.2656 74.4135 44.8691 73.1719 43.4779H73.2533L63 22.9688V10.5H60.375ZM48.4811 18.4564C48.4706 18.4774 48.4076 18.5194 48.3971 18.5404C47.3314 18.5903 46.2971 18.6428 45.2812 18.7845C44.4596 18.8974 43.68 19.1021 42.903 19.278C43.6873 19.0751 44.481 18.9104 45.2812 18.7845C46.305 18.6112 47.3812 18.5089 48.4811 18.4564ZM57.75 31.5C56.3063 31.5 55.125 32.6812 55.125 34.125C55.125 35.5688 56.3063 36.75 57.75 36.75C59.1937 36.75 60.375 35.5688 60.375 34.125C60.375 32.6812 59.1937 31.5 57.75 31.5Z" fill="#DC7C7C"/>
</svg>
